<svg xmlns:xlink="http://www.w3.org/1999/xlink" width="22" height="20" viewBox="0 0 22 20" fill="none" xmlns="http://www.w3.org/2000/svg"><path d="M21.8066 8.05093C21.7857 7.94532 21.7423 7.84544 21.6794 7.75809C21.6164 7.67073 21.5354 7.59795 21.4419 7.54468L18.6453 5.95093L18.6341 2.79906C18.6337 2.69051 18.6098 2.58333 18.564 2.48492C18.5182 2.38651 18.4516 2.29921 18.3688 2.22906C17.3543 1.37096 16.1861 0.713372 14.9263 0.291247C14.827 0.257666 14.7219 0.245238 14.6176 0.254765C14.5133 0.264292 14.4121 0.295561 14.3206 0.34656L11.4997 1.92343L8.67594 0.343747C8.5844 0.292462 8.48311 0.260956 8.37863 0.251267C8.27414 0.241577 8.16879 0.25392 8.06938 0.287497C6.81029 0.712333 5.64335 1.37247 4.63063 2.23281C4.54791 2.30286 4.48136 2.39 4.43556 2.48824C4.38975 2.58648 4.36579 2.69348 4.36532 2.80187L4.35125 5.95656L1.55469 7.55031C1.46113 7.60357 1.38013 7.67636 1.3172 7.76371C1.25428 7.85107 1.21089 7.95094 1.19 8.05656C0.934062 9.3427 0.934062 10.6667 1.19 11.9528C1.21089 12.0584 1.25428 12.1583 1.3172 12.2457C1.38013 12.333 1.46113 12.4058 1.55469 12.4591L4.35125 14.0528L4.3625 17.2056C4.36284 17.3142 4.38674 17.4214 4.43255 17.5198C4.47835 17.6182 4.54498 17.7055 4.62782 17.7756C5.64226 18.6337 6.81046 19.2913 8.07031 19.7134C8.16953 19.747 8.27468 19.7594 8.37899 19.7499C8.48329 19.7404 8.58445 19.7091 8.67594 19.6581L11.4997 18.0766L14.3234 19.6562C14.4352 19.7185 14.5611 19.7508 14.6891 19.75C14.771 19.75 14.8523 19.7367 14.93 19.7106C16.1888 19.286 17.3556 18.6265 18.3688 17.7672C18.4515 17.6971 18.518 17.61 18.5638 17.5118C18.6096 17.4135 18.6336 17.3065 18.6341 17.1981L18.6481 14.0434L21.4447 12.4497C21.5383 12.3964 21.6192 12.3236 21.6822 12.2363C21.7451 12.1489 21.7885 12.049 21.8094 11.9434C22.0639 10.6583 22.0629 9.33568 21.8066 8.05093ZM11.4997 13.75C10.758 13.75 10.033 13.5301 9.4163 13.118C8.79962 12.706 8.31897 12.1203 8.03514 11.4351C7.75131 10.7498 7.67705 9.99584 7.82174 9.26841C7.96644 8.54098 8.32359 7.87279 8.84804 7.34835C9.37249 6.8239 10.0407 6.46675 10.7681 6.32205C11.4955 6.17736 12.2495 6.25162 12.9348 6.53545C13.62 6.81928 14.2056 7.29992 14.6177 7.91661C15.0298 8.53329 15.2497 9.25832 15.2497 10C15.2497 10.9946 14.8546 11.9484 14.1513 12.6516C13.4481 13.3549 12.4943 13.75 11.4997 13.75Z" fill="#FFFFFF"></path></svg>