<svg xmlns:xlink="http://www.w3.org/1999/xlink" xmlns="http://www.w3.org/2000/svg" width="33" height="32" viewBox="0 0 33 32" fill="none">
<rect x="0.5" width="32" height="32" rx="16" fill="white"/>
<rect x="4.5" y="4" width="24" height="24" rx="12" fill="white"/>
<path d="M27.001 16.2331C27.001 15.3698 26.9296 14.7398 26.7748 14.0864H16.7153V17.983H22.62C22.501 18.9514 21.8582 20.4097 20.4296 21.3897L20.4096 21.5202L23.5902 23.9349L23.8106 23.9564C25.8343 22.1247 27.001 19.4297 27.001 16.2331Z" fill="#4285F4"/>
<path d="M16.714 26.5001C19.6068 26.5001 22.0353 25.5667 23.8092 23.9567L20.4282 21.39C19.5235 22.0083 18.3092 22.44 16.714 22.44C13.8807 22.44 11.476 20.6083 10.6187 18.0767L10.4931 18.0871L7.18583 20.5955L7.14258 20.7133C8.90446 24.1433 12.5235 26.5001 16.714 26.5001Z" fill="#34A853"/>
<path d="M10.6205 18.0765C10.3943 17.4232 10.2634 16.7231 10.2634 15.9998C10.2634 15.2764 10.3943 14.5765 10.6086 13.9231L10.6026 13.784L7.25386 11.2354L7.14429 11.2864C6.41814 12.7098 6.00146 14.3081 6.00146 15.9998C6.00146 17.6915 6.41814 19.2897 7.14429 20.7131L10.6205 18.0765Z" fill="#FBBC05"/>
<path d="M16.7141 9.55997C18.7259 9.55997 20.083 10.4116 20.8569 11.1233L23.8807 8.23C22.0236 6.53834 19.6069 5.5 16.7141 5.5C12.5235 5.5 8.90447 7.85665 7.14258 11.2866L10.6069 13.9233C11.476 11.3917 13.8807 9.55997 16.7141 9.55997Z" fill="#EB4335"/>
</svg>