<svg xmlns:xlink="http://www.w3.org/1999/xlink" width="25" height="24" viewBox="0 0 25 24" fill="none" xmlns="http://www.w3.org/2000/svg"><path d="M20.3929 15.2039C19.88 15.2039 19.4743 14.7772 19.3013 14.2944C19.2312 14.0988 19.1385 13.9032 19.0232 13.7076C18.7292 13.2089 18.3036 12.8504 17.7464 12.6322L10.5036 9.73317L10.1786 9.63965C10.0702 9.60848 9.94643 9.59289 9.80714 9.59289H9.70079C8.93899 9.59289 8.32143 8.97533 8.32143 8.21353C8.32143 7.90181 8.39107 7.61347 8.53036 7.3485C8.66964 7.08354 8.86309 6.86534 9.11071 6.69389L13.7536 3.35069C14.0631 3.1169 14.419 3 14.8214 3C15.2238 3 15.5798 3.1169 15.8893 3.35069L20.5321 6.69389C20.7798 6.86534 20.9732 7.08354 21.1125 7.3485C21.2518 7.61347 21.3214 7.90181 21.3214 8.21353V14.2753C21.3214 14.7881 20.9057 15.2039 20.3929 15.2039ZM15.75 8.65773C15.8738 8.65773 15.9821 8.61097 16.075 8.51746C16.1679 8.42394 16.2143 8.31484 16.2143 8.19015C16.2143 8.06546 16.1679 7.95636 16.075 7.86284C15.9821 7.76933 15.8738 7.72257 15.75 7.72257C15.6262 7.72257 15.5179 7.76933 15.425 7.86284C15.3321 7.95636 15.2857 8.06546 15.2857 8.19015C15.2857 8.31484 15.3321 8.42394 15.425 8.51746C15.5179 8.61097 15.6262 8.65773 15.75 8.65773ZM13.8929 8.65773C14.0167 8.65773 14.125 8.61097 14.2179 8.51746C14.3107 8.42394 14.3571 8.31484 14.3571 8.19015C14.3571 8.06546 14.3107 7.95636 14.2179 7.86284C14.125 7.76933 14.0167 7.72257 13.8929 7.72257C13.769 7.72257 13.6607 7.76933 13.5679 7.86284C13.475 7.95636 13.4286 8.06546 13.4286 8.19015C13.4286 8.31484 13.475 8.42394 13.5679 8.51746C13.6607 8.61097 13.769 8.65773 13.8929 8.65773ZM15.75 10.5281C15.8738 10.5281 15.9821 10.4813 16.075 10.3878C16.1679 10.2943 16.2143 10.1852 16.2143 10.0605C16.2143 9.93579 16.1679 9.82668 16.075 9.73317C15.9821 9.63965 15.8738 9.59289 15.75 9.59289C15.6262 9.59289 15.5179 9.63965 15.425 9.73317C15.3321 9.82668 15.2857 9.93579 15.2857 10.0605C15.2857 10.1852 15.3321 10.2943 15.425 10.3878C15.5179 10.4813 15.6262 10.5281 15.75 10.5281ZM13.8929 10.5281C14.0167 10.5281 14.125 10.4813 14.2179 10.3878C14.3107 10.2943 14.3571 10.1852 14.3571 10.0605C14.3571 9.93579 14.3107 9.82668 14.2179 9.73317C14.125 9.63965 14.0167 9.59289 13.8929 9.59289C13.769 9.59289 13.6607 9.63965 13.5679 9.73317C13.475 9.82668 13.4286 9.93579 13.4286 10.0605C13.4286 10.1852 13.475 10.2943 13.5679 10.3878C13.6607 10.4813 13.769 10.5281 13.8929 10.5281ZM2.75 19.8797V13.3335C2.75 12.8192 2.932 12.3787 3.296 12.0122C3.65938 11.6462 4.09643 11.4632 4.60714 11.4632C5.11786 11.4632 5.5549 11.6462 5.91829 12.0122C6.28229 12.3787 6.46429 12.8192 6.46429 13.3335V19.8797C6.46429 20.394 6.28229 20.8345 5.91829 21.2011C5.5549 21.567 5.11786 21.75 4.60714 21.75C4.09643 21.75 3.65938 21.567 3.296 21.2011C2.932 20.8345 2.75 20.394 2.75 19.8797ZM14.2411 21.5863L9.7744 20.3162C8.9146 20.0717 8.32143 19.2864 8.32143 18.3925V12.9489C8.32143 12.1284 8.98661 11.4632 9.80714 11.4632C9.91548 11.4632 10.0238 11.4748 10.1321 11.4978C10.2405 11.5215 10.3488 11.5489 10.4571 11.5801L16.8875 13.9882C17.1042 14.0661 17.2784 14.2064 17.4103 14.409C17.5415 14.6116 17.6071 14.822 17.6071 15.0402C17.6071 15.3675 17.4951 15.6325 17.271 15.8351C17.0463 16.0377 16.7869 16.139 16.4929 16.139H14.0554C13.978 16.139 13.9201 16.1353 13.8817 16.1278C13.8427 16.1197 13.7923 16.1001 13.7304 16.0689L12.6857 15.6714C12.5619 15.6247 12.4381 15.6325 12.3143 15.6948C12.1905 15.7572 12.1131 15.8429 12.0821 15.952C12.0512 16.0767 12.0589 16.1936 12.1054 16.3027C12.1518 16.4118 12.2369 16.4897 12.3607 16.5365L13.7304 17.0274C13.7613 17.043 13.8077 17.0549 13.8696 17.063C13.9315 17.0705 13.9857 17.0742 14.0321 17.0742H20.3929C20.8881 17.0742 21.3214 17.2534 21.6929 17.6119C21.7185 17.6366 21.7432 17.6618 21.767 17.6873C22.3343 18.2947 21.7359 19.1393 20.9587 19.4338L15.4018 21.5396C15.247 21.6019 15.0573 21.6368 14.8326 21.6443C14.6085 21.6524 14.4113 21.6331 14.2411 21.5863Z" fill="#FFFFFF"></path></svg>