<svg xmlns:xlink="http://www.w3.org/1999/xlink" width="25" height="24" viewBox="0 0 25 24" fill="none" xmlns="http://www.w3.org/2000/svg"><path d="M5.75228 19.8967C5.25967 19.8967 4.77302 19.789 4.3265 19.5809C3.87998 19.3729 3.48442 19.0696 3.16758 18.6924C2.85074 18.3153 2.62031 17.8733 2.49247 17.3976C2.36463 16.9218 2.34248 16.4239 2.42757 15.9387C2.51266 15.4535 2.70294 14.9928 2.98503 14.589C3.26712 14.1851 3.6342 13.8479 4.06048 13.6011C4.48677 13.3542 4.96192 13.2036 5.45259 13.16C5.94325 13.1163 6.43753 13.1806 6.90071 13.3482L10.0929 8.37949C9.62741 7.90494 9.31242 7.30349 9.18745 6.6506C9.06248 5.99771 9.1331 5.32245 9.39044 4.70955C9.64779 4.09664 10.0804 3.57337 10.634 3.20539C11.1876 2.83742 11.8375 2.64111 12.5023 2.64111C13.167 2.64111 13.817 2.83742 14.3706 3.20539C14.9242 3.57337 15.3568 4.09664 15.6141 4.70955C15.8714 5.32245 15.9421 5.99771 15.8171 6.6506C15.6921 7.30349 15.3771 7.90494 14.9116 8.37949L18.0991 13.3482C18.881 13.0637 19.7402 13.0772 20.5127 13.3862C21.2852 13.6952 21.9168 14.278 22.2867 15.0232C22.6567 15.7684 22.7391 16.6238 22.5182 17.4259C22.2973 18.2281 21.7886 18.9207 21.0894 19.3715C20.3901 19.8223 19.5492 19.9996 18.7274 19.8695C17.9056 19.7395 17.1606 19.3113 16.6346 18.6666C16.1087 18.0219 15.8387 17.2061 15.8762 16.375C15.9138 15.5438 16.2563 14.7556 16.8382 14.1611L13.646 9.1923C12.9039 9.46084 12.0912 9.46084 11.3491 9.1923L8.15696 14.1611C8.62125 14.6354 8.93533 15.2362 9.05992 15.8882C9.18451 16.5402 9.11407 17.2145 8.85742 17.8266C8.60077 18.4388 8.1693 18.9617 7.61699 19.3299C7.06468 19.6981 6.41606 19.8952 5.75228 19.8967Z" fill="#FFFFFF"></path></svg>