<svg xmlns:xlink="http://www.w3.org/1999/xlink" xmlns="http://www.w3.org/2000/svg" width="32" height="32" viewBox="0 0 32 32" fill="none"><path d="M24.4143 17.6789C23.7849 17.6789 23.2864 17.1528 23.054 16.5679C22.9707 16.3583 22.8638 16.1487 22.7334 15.939C22.3725 15.3591 21.8502 14.9423 21.1664 14.6885L12.2775 11.3176L11.8786 11.2089C11.7456 11.1726 11.5937 11.1545 11.4228 11.1545H11.2033C10.3175 11.1545 9.59938 10.4364 9.59938 9.55058C9.59938 9.18812 9.68485 8.85284 9.85579 8.54474C10.0267 8.23665 10.2642 7.98292 10.568 7.78356L16.2661 3.89612C16.646 3.62427 17.0828 3.48834 17.5767 3.48834C18.0705 3.48834 18.5073 3.62427 18.8872 3.89612L24.5853 7.78356C24.8892 7.98292 25.1266 8.23665 25.2975 8.54474C25.4685 8.85284 25.5539 9.18812 25.5539 9.55058V16.5393C25.5539 17.1687 25.0437 17.6789 24.4143 17.6789ZM18.7163 10.0671C18.8682 10.0671 19.0012 10.0127 19.1151 9.90399C19.2291 9.79525 19.2861 9.66839 19.2861 9.5234C19.2861 9.37841 19.2291 9.25155 19.1151 9.14281C19.0012 9.03407 18.8682 8.9797 18.7163 8.9797C18.5643 8.9797 18.4314 9.03407 18.3174 9.14281C18.2034 9.25155 18.1465 9.37841 18.1465 9.5234C18.1465 9.66839 18.2034 9.79525 18.3174 9.90399C18.4314 10.0127 18.5643 10.0671 18.7163 10.0671ZM16.437 10.0671C16.589 10.0671 16.7219 10.0127 16.8359 9.90399C16.9499 9.79525 17.0068 9.66839 17.0068 9.5234C17.0068 9.37841 16.9499 9.25155 16.8359 9.14281C16.7219 9.03407 16.589 8.9797 16.437 8.9797C16.2851 8.9797 16.1521 9.03407 16.0382 9.14281C15.9242 9.25155 15.8672 9.37841 15.8672 9.5234C15.8672 9.66839 15.9242 9.79525 16.0382 9.90399C16.1521 10.0127 16.2851 10.0671 16.437 10.0671ZM18.7163 12.2419C18.8682 12.2419 19.0012 12.1875 19.1151 12.0788C19.2291 11.97 19.2861 11.8432 19.2861 11.6982C19.2861 11.5532 19.2291 11.4263 19.1151 11.3176C19.0012 11.2089 18.8682 11.1545 18.7163 11.1545C18.5643 11.1545 18.4314 11.2089 18.3174 11.3176C18.2034 11.4263 18.1465 11.5532 18.1465 11.6982C18.1465 11.8432 18.2034 11.97 18.3174 12.0788C18.4314 12.1875 18.5643 12.2419 18.7163 12.2419ZM16.437 12.2419C16.589 12.2419 16.7219 12.1875 16.8359 12.0788C16.9499 11.97 17.0068 11.8432 17.0068 11.6982C17.0068 11.5532 16.9499 11.4263 16.8359 11.3176C16.7219 11.2089 16.589 11.1545 16.437 11.1545C16.2851 11.1545 16.1521 11.2089 16.0382 11.3176C15.9242 11.4263 15.8672 11.5532 15.8672 11.6982C15.8672 11.8432 15.9242 11.97 16.0382 12.0788C16.1521 12.1875 16.2851 12.2419 16.437 12.2419ZM2.76172 23.1159V15.5041C2.76172 14.906 2.98508 14.3939 3.43181 13.9676C3.87778 13.5421 4.41415 13.3293 5.04094 13.3293C5.66773 13.3293 6.2041 13.5421 6.65007 13.9676C7.0968 14.3939 7.32016 14.906 7.32016 15.5041V23.1159C7.32016 23.7139 7.0968 24.2261 6.65007 24.6524C6.2041 25.0779 5.66773 25.2907 5.04094 25.2907C4.41415 25.2907 3.87778 25.0779 3.43181 24.6524C2.98508 24.2261 2.76172 23.7139 2.76172 23.1159ZM16.8644 25.1004L11.0791 23.5417C10.206 23.3065 9.59938 22.5148 9.59938 21.6106V15.1527C9.59938 14.1456 10.4157 13.3293 11.4228 13.3293C11.5557 13.3293 11.6887 13.3427 11.8216 13.3695C11.9546 13.3971 12.0875 13.429 12.2205 13.4652L20.1123 16.2653C20.3782 16.3559 20.5921 16.519 20.7539 16.7546C20.915 16.9902 20.9955 17.2349 20.9955 17.4886C20.9955 17.8692 20.858 18.1773 20.5829 18.4129C20.3072 18.6485 19.9888 18.7663 19.628 18.7663H16.6365C16.5415 18.7663 16.4705 18.7619 16.4234 18.7532C16.3755 18.7438 16.3136 18.721 16.2376 18.6847L14.9556 18.2226C14.8036 18.1682 14.6517 18.1773 14.4997 18.2498C14.3478 18.3223 14.2528 18.4219 14.2148 18.5488C14.1768 18.6938 14.1863 18.8297 14.2433 18.9566C14.3003 19.0834 14.4047 19.1741 14.5567 19.2284L16.2376 19.7993C16.2756 19.8174 16.3326 19.8312 16.4086 19.8406C16.4845 19.8493 16.551 19.8537 16.608 19.8537H24.4143C25.0221 19.8537 25.5539 20.0621 26.0098 20.4789C26.0958 20.5576 26.1737 20.6398 26.2435 20.7255C26.7762 21.3802 26.1637 22.2187 25.3694 22.5039L18.2889 25.046C18.099 25.1185 17.8661 25.1591 17.5903 25.1678C17.3153 25.1772 17.0733 25.1547 16.8644 25.1004Z" fill="#FFA51E"></path></svg>