<svg xmlns:xlink="http://www.w3.org/1999/xlink" width="25" height="24" viewBox="0 0 25 24" fill="none" xmlns="http://www.w3.org/2000/svg"><path d="M20 4.5H5C4.40326 4.5 3.83097 4.73705 3.40901 5.15901C2.98705 5.58097 2.75 6.15326 2.75 6.75V17.25C2.75 17.8467 2.98705 18.419 3.40901 18.841C3.83097 19.2629 4.40326 19.5 5 19.5H20C20.5967 19.5 21.169 19.2629 21.591 18.841C22.0129 18.419 22.25 17.8467 22.25 17.25V6.75C22.25 6.15326 22.0129 5.58097 21.591 5.15901C21.169 4.73705 20.5967 4.5 20 4.5ZM14.705 11.7009C14.5999 12.2076 14.3235 12.6625 13.9222 12.9891C13.5209 13.3157 13.0193 13.4941 12.5019 13.4941C11.9845 13.4941 11.4829 13.3157 11.0816 12.9891C10.6803 12.6625 10.4038 12.2076 10.2987 11.7009C10.2297 11.3615 10.0453 11.0564 9.77679 10.8375C9.50831 10.6186 9.17235 10.4993 8.82594 10.5H4.25V9H20.75V10.5H16.1741C15.8283 10.5002 15.4932 10.6198 15.2255 10.8387C14.9578 11.0575 14.7739 11.3621 14.705 11.7009ZM5 6H20C20.1989 6 20.3897 6.07902 20.5303 6.21967C20.671 6.36032 20.75 6.55109 20.75 6.75V7.5H4.25V6.75C4.25 6.55109 4.32902 6.36032 4.46967 6.21967C4.61032 6.07902 4.80109 6 5 6Z" fill="#FFFFFF"></path></svg>